<?xml version="1.0" standalone="no"?>
<!DOCTYPE svg PUBLIC "-//W3C//DTD SVG 20010904//EN"
 "http://www.w3.org/TR/2001/REC-SVG-20010904/DTD/svg10.dtd">
<svg version="1.0" xmlns="http://www.w3.org/2000/svg"
 width="256.000000pt" height="256.000000pt" viewBox="0 0 256.000000 256.000000"
 preserveAspectRatio="xMidYMid meet">
<metadata>
Created by potrace 1.11, written by Peter Selinger 2001-2013
</metadata>
<g transform="translate(0.000000,256.000000) scale(0.100000,-0.100000)"
fill="#000000" stroke="none">
<path d="M1162 2548 c-57 -6 -78 -9 -166 -25 -57 -10 -232 -76 -306 -115 -134
-72 -210 -129 -323 -243 -59 -59 -171 -210 -172 -230 0 -14 -41 -119 -65 -165
-25 -49 -98 -254 -98 -275 0 -3 -4 -33 -8 -68 -4 -34 -8 -69 -9 -77 0 -8 -4
-20 -8 -27 -4 -6 -1 -14 5 -16 7 -3 8 -6 2 -6 -6 -1 -9 -16 -6 -39 2 -20 4
-44 4 -52 0 -8 4 -42 8 -75 5 -33 12 -78 15 -101 3 -22 14 -70 24 -105 140
-487 545 -841 1046 -913 445 -63 898 122 1176 480 98 127 204 338 192 384 -5
17 -3 21 7 15 9 -5 11 -4 6 3 -6 10 3 54 21 107 2 6 11 58 21 116 17 99 21
238 9 314 -10 62 -21 130 -22 135 -35 147 -101 296 -193 435 -58 87 -236 267
-320 324 -252 170 -561 250 -840 219z m1308 -1686 c0 -5 -7 -17 -16 -28 -8
-10 -14 -14 -11 -9 2 6 7 18 10 28 7 17 17 23 17 9z"/>
</g>
</svg>
